HIERARCHY
ROOT Hips
{
	OFFSET 0.000000 95.729000 0.000000
	CHANNELS 6 Xposition Yposition Zposition Yrotation Xrotation Zrotation
	JOINT RightUpLeg
	{
		OFFSET -9.625000 -1.639000 0.000000
		CHANNELS 3 Yrotation Xrotation Zrotation
		JOINT RightLeg
		{
			OFFSET 0.000000 -41.481000 0.000000
			CHANNELS 3 Yrotation Xrotation Zrotation
			JOINT RightFoot
			{
				OFFSET 0.000000 -43.120000 0.000000
				CHANNELS 3 Yrotation Xrotation Zrotation
				End Site
				{
					OFFSET 0.000000 -7.850000 17.850000
				}
			}
		}
	}
	JOINT LeftUpLeg
	{
		OFFSET 9.625000 -1.639000 0.000000
		CHANNELS 3 Yrotation Xrotation Zrotation
		JOINT LeftLeg
		{
			OFFSET 0.000000 -43.120000 0.000000
			CHANNELS 3 Yrotation Xrotation Zrotation
			JOINT LeftFoot
			{
				OFFSET 0.000000 -43.120000 0.000000
				CHANNELS 3 Yrotation Xrotation Zrotation
				End Site
				{
					OFFSET 0.000000 -7.850000 17.850000
				}
			}
		}
	}
	JOINT Spine
	{
		OFFSET 0.000000 16.395000 0.000000
		CHANNELS 3 Yrotation Xrotation Zrotation
		JOINT Spine1
		{
			OFFSET 0.000000 10.023000 0.000000
			CHANNELS 3 Yrotation Xrotation Zrotation
			JOINT Spine2
			{
				OFFSET 0.000000 10.437000 0.000000
				CHANNELS 3 Yrotation Xrotation Zrotation
				JOINT Spine3
				{
					OFFSET 0.000000 10.023000 0.000000
					CHANNELS 3 Yrotation Xrotation Zrotation
					JOINT Neck
					{
						OFFSET 0.000000 10.713000 0.000000
						CHANNELS 3 Yrotation Xrotation Zrotation
						JOINT Head
						{
							OFFSET 0.000000 9.720000 0.000000
							CHANNELS 3 Yrotation Xrotation Zrotation
							End Site
							{
								OFFSET 0.000000 16.450000 0.000000
							}
						}
					}
					JOINT RightShoulder
					{
						OFFSET -3.275000 7.142000 0.000000
						CHANNELS 3 Yrotation Xrotation Zrotation
						JOINT RightArm
						{
							OFFSET -13.100000 0.000000 0.000000
							CHANNELS 3 Yrotation Xrotation Zrotation
							JOINT RightForeArm
							{
								OFFSET -27.250000 0.000000 0.000000
								CHANNELS 3 Yrotation Xrotation Zrotation
								JOINT RightHand
								{
									OFFSET -26.750000 0.000000 0.000000
									CHANNELS 3 Yrotation Xrotation Zrotation
									End Site
									{
										OFFSET -3.479000 0.532000 0.778000
									}
								}
							}
						}
					}
					JOINT LeftShoulder
					{
						OFFSET 3.275000 7.142000 0.000000
						CHANNELS 3 Yrotation Xrotation Zrotation
						JOINT LeftArm
						{
							OFFSET 13.100000 0.000000 0.000000
							CHANNELS 3 Yrotation Xrotation Zrotation
							JOINT LeftForeArm
							{
								OFFSET 27.250000 0.000000 0.000000
								CHANNELS 3 Yrotation Xrotation Zrotation
								JOINT LeftHand
								{
									OFFSET 26.750000 0.000000 0.000000
									CHANNELS 3 Yrotation Xrotation Zrotation
									End Site
									{
										OFFSET 3.479000 0.532000 0.778000
									}
								}
							}
						}
					}
				}
			}
		}
	}
}
MOTION
Frames: 23
Frame Time: 0.041667
32.36 94.52 24.88 -149.68 -1.23 0.44 15.05 -13.66 0.59 -0.0 27.91 -0.0 -17.38 -13.14 3.16 16.08 -12.07 10.88 0.0 20.86 0.0 6.4 -14.08 -3.3 -0.58 2.02 1.28 -0.14 0.5 0.32 -0.23 0.84 0.54 -0.47 0.33 0.23 -0.47 0.33 0.23 -8.12 6.39 3.79 15.87 -6.35 -4.48 5.69 -60.71 45.97 96.72 42.53 -3.76 -19.68 33.01 -31.84 3.11 0.28 -8.85 -17.0 1.4 -65.01 -13.4 21.95 -2.73 11.03 29.97 24.18
32.37 94.52 24.89 -149.68 -1.23 0.44 15.06 -13.67 0.59 0.0 27.92 -0.0 -17.38 -13.14 3.12 16.1 -12.08 10.88 0.0 20.85 0.0 6.42 -14.1 -3.32 -0.58 2.02 1.28 -0.14 0.5 0.32 -0.23 0.84 0.54 -0.47 0.32 0.23 -0.47 0.33 0.23 -8.11 6.36 3.77 15.93 -6.35 -4.54 5.66 -60.78 45.96 96.5 42.58 -3.84 -19.73 33.11 -31.64 3.06 0.28 -8.84 -17.03 1.37 -64.98 -13.42 21.95 -2.72 11.06 30.01 24.2
32.37 94.52 24.91 -149.68 -1.23 0.44 15.06 -13.67 0.59 -0.0 27.92 -0.0 -17.38 -13.14 3.12 16.13 -12.1 10.87 -0.0 20.86 0.0 6.43 -14.13 -3.34 -0.58 2.02 1.28 -0.14 0.5 0.32 -0.23 0.84 0.54 -0.47 0.32 0.23 -0.47 0.32 0.23 -8.11 6.32 3.76 15.99 -6.36 -4.61 5.64 -60.85 45.96 96.26 42.67 -3.93 -19.74 33.13 -31.47 3.02 0.28 -8.83 -17.06 1.34 -64.94 -13.44 21.94 -2.72 11.12 30.01 24.2
32.38 94.52 24.92 -149.68 -1.23 0.44 15.05 -13.68 0.59 0.0 27.92 0.0 -17.37 -13.14 3.09 16.17 -12.12 10.87 0.0 20.87 0.0 6.43 -14.16 -3.36 -0.58 2.02 1.28 -0.14 0.5 0.32 -0.23 0.84 0.54 -0.47 0.32 0.23 -0.47 0.32 0.23 -8.1 6.29 3.74 16.06 -6.37 -4.67 5.62 -60.92 45.96 95.67 42.91 -4.18 -19.5 32.96 -31.31 2.98 0.28 -8.82 -17.09 1.31 -64.91 -13.44 21.93 -2.71 11.12 29.97 24.12
32.38 94.52 24.94 -149.68 -1.23 0.44 15.05 -13.68 0.59 0.0 27.92 0.0 -17.36 -13.14 3.08 16.21 -12.13 10.86 -0.0 20.87 -0.0 6.44 -14.19 -3.37 -0.58 2.02 1.28 -0.14 0.5 0.32 -0.23 0.84 0.54 -0.47 0.32 0.23 -0.47 0.32 0.23 -8.1 6.26 3.73 16.13 -6.38 -4.74 5.59 -60.98 45.96 95.4 42.94 -4.26 -19.51 32.98 -31.23 2.95 0.28 -8.81 -17.11 1.27 -64.88 -13.45 21.93 -2.71 11.12 29.93 24.05
32.39 94.53 24.95 -149.68 -1.24 0.46 15.04 -13.67 0.58 -0.0 27.92 -0.0 -17.36 -13.14 3.07 16.26 -12.13 10.84 -0.0 20.85 -0.0 6.43 -14.2 -3.39 -0.6 1.97 1.28 -0.15 0.49 0.32 -0.24 0.82 0.54 -0.47 0.32 0.23 -0.47 0.32 0.23 -8.09 6.31 3.69 16.21 -6.3 -4.79 5.57 -61.04 45.96 95.08 42.97 -4.36 -19.49 32.99 -31.13 2.97 0.36 -8.81 -17.17 1.24 -64.84 -13.43 21.93 -2.7 11.12 29.98 24.07
32.39 94.53 24.96 -149.69 -1.25 0.47 15.06 -13.67 0.56 0.0 27.92 0.0 -17.37 -13.15 3.06 16.32 -12.12 10.82 -0.0 20.83 -0.0 6.45 -14.22 -3.4 -0.59 1.96 1.26 -0.14 0.49 0.32 -0.23 0.82 0.53 -0.47 0.32 0.23 -0.47 0.32 0.23 -8.09 6.3 3.68 16.27 -6.3 -4.85 5.54 -61.11 45.95 94.79 43.0 -4.44 -19.47 32.98 -31.03 2.96 0.38 -8.8 -17.22 1.21 -64.8 -13.42 21.94 -2.7 11.16 29.99 24.08
32.39 94.53 24.97 -149.69 -1.25 0.47 15.07 -13.67 0.56 0.0 27.93 -0.0 -17.38 -13.15 3.05 16.36 -12.13 10.82 -0.0 20.84 -0.0 6.47 -14.25 -3.43 -0.58 1.95 1.25 -0.14 0.49 0.32 -0.23 0.81 0.52 -0.47 0.32 0.23 -0.47 0.32 0.23 -8.1 6.32 3.69 16.31 -6.3 -4.89 5.5 -61.16 45.97 94.55 43.03 -4.46 -19.44 32.93 -30.92 2.92 0.39 -8.77 -17.24 1.17 -64.77 -13.38 21.91 -2.68 11.25 30.12 24.2
32.39 94.53 24.98 -149.69 -1.25 0.47 15.08 -13.67 0.56 0.0 27.92 -0.0 -17.39 -13.14 3.04 16.4 -12.14 10.81 0.0 20.84 0.0 6.48 -14.27 -3.45 -0.57 1.94 1.24 -0.14 0.48 0.31 -0.22 0.81 0.52 -0.47 0.32 0.23 -0.47 0.32 0.23 -8.12 6.34 3.7 16.35 -6.3 -4.92 5.47 -61.22 45.96 94.27 43.01 -4.47 -19.37 32.89 -30.83 2.89 0.39 -8.75 -17.27 1.13 -64.74 -13.36 21.91 -2.68 11.3 30.1 24.18
32.39 94.53 24.99 -149.69 -1.25 0.47 15.09 -13.67 0.57 0.0 27.91 0.0 -17.4 -13.14 3.02 16.44 -12.15 10.81 0.0 20.83 -0.0 6.49 -14.29 -3.47 -0.57 1.94 1.24 -0.14 0.48 0.31 -0.22 0.81 0.52 -0.47 0.32 0.23 -0.47 0.32 0.23 -8.12 6.34 3.7 16.41 -6.31 -4.97 5.46 -61.29 45.97 94.18 43.03 -4.46 -19.33 32.83 -30.66 2.87 0.32 -8.71 -17.26 1.15 -64.77 -13.31 21.9 -2.67 11.3 30.12 24.17
32.4 94.53 25.0 -149.69 -1.25 0.47 15.11 -13.66 0.57 -0.0 27.9 -0.0 -17.42 -13.13 3.01 16.49 -12.16 10.81 -0.0 20.83 -0.0 6.5 -14.31 -3.48 -0.57 1.94 1.24 -0.14 0.48 0.31 -0.22 0.81 0.52 -0.47 0.32 0.23 -0.47 0.32 0.23 -8.12 6.34 3.7 16.47 -6.33 -5.03 5.42 -61.37 46.0 94.1 43.05 -4.42 -19.24 32.72 -30.54 2.88 0.28 -8.69 -17.29 1.13 -64.76 -13.28 21.89 -2.67 11.33 30.12 24.16
32.4 94.53 25.01 -149.62 -1.29 0.55 15.08 -13.63 0.51 0.0 27.97 0.0 -17.44 -13.17 3.02 16.49 -12.09 10.73 -0.0 20.77 -0.0 6.49 -14.3 -3.49 -0.58 1.91 1.17 -0.14 0.48 0.29 -0.23 0.8 0.49 -0.47 0.33 0.23 -0.47 0.33 0.23 -8.16 6.39 3.72 16.48 -6.29 -5.02 5.37 -61.45 46.05 93.87 43.02 -4.36 -19.05 32.56 -30.63 2.84 0.31 -8.63 -17.29 1.12 -64.74 -13.24 21.87 -2.67 11.32 30.14 24.16
32.4 94.53 25.01 -149.61 -1.29 0.56 15.08 -13.63 0.49 -0.0 27.99 0.0 -17.45 -13.18 3.03 16.53 -12.09 10.71 -0.0 20.77 -0.0 6.49 -14.31 -3.5 -0.58 1.9 1.16 -0.14 0.47 0.29 -0.23 0.79 0.48 -0.47 0.33 0.23 -0.47 0.33 0.23 -8.17 6.4 3.71 16.52 -6.3 -5.06 5.31 -61.51 46.1 93.65 42.93 -4.28 -18.85 32.39 -30.85 2.84 0.3 -8.61 -17.29 1.11 -64.73 -13.22 21.85 -2.67 11.34 30.15 24.16
32.39 94.53 25.02 -149.48 -1.34 0.61 14.96 -13.58 0.46 0.0 28.04 -0.0 -17.46 -13.22 3.03 16.45 -12.03 10.66 0.0 20.72 0.0 6.48 -14.29 -3.5 -0.67 1.93 1.13 -0.16 0.48 0.28 -0.27 0.8 0.47 -0.47 0.32 0.22 -0.47 0.32 0.22 -8.17 6.32 3.61 16.57 -6.34 -5.1 5.29 -61.54 46.1 93.24 42.51 -4.05 -18.74 32.41 -31.58 2.85 0.27 -8.6 -17.3 1.1 -64.7 -13.19 21.83 -2.69 11.36 30.16 24.17
32.39 94.53 25.03 -149.44 -1.35 0.62 14.94 -13.56 0.45 -0.0 28.05 0.0 -17.47 -13.23 3.02 16.47 -12.03 10.65 -0.0 20.72 -0.0 6.47 -14.31 -3.5 -0.69 1.93 1.12 -0.17 0.48 0.28 -0.28 0.81 0.47 -0.47 0.32 0.22 -0.47 0.32 0.22 -8.17 6.3 3.6 16.6 -6.4 -5.14 5.31 -61.53 46.06 93.07 42.39 -3.99 -18.63 32.3 -31.85 2.87 0.24 -8.59 -17.31 1.09 -64.69 -13.18 21.81 -2.7 11.38 30.15 24.17
32.39 94.53 25.04 -149.4 -1.36 0.62 14.91 -13.55 0.46 0.0 28.05 0.0 -17.49 -13.23 3.0 16.47 -12.05 10.65 -0.0 20.74 -0.0 6.46 -14.33 -3.51 -0.71 1.94 1.12 -0.18 0.48 0.28 -0.29 0.81 0.47 -0.47 0.32 0.22 -0.47 0.32 0.22 -8.17 6.27 3.58 16.63 -6.46 -5.16 5.36 -61.5 46.0 92.99 42.38 -4.02 -18.54 32.18 -31.94 2.89 0.21 -8.58 -17.3 1.08 -64.67 -13.17 21.84 -2.74 11.41 30.13 24.21
32.38 94.53 25.04 -149.36 -1.37 0.62 14.89 -13.53 0.45 -0.0 28.04 -0.0 -17.5 -13.23 3.0 16.49 -12.06 10.64 0.0 20.74 0.0 6.46 -14.35 -3.51 -0.74 1.94 1.12 -0.18 0.49 0.28 -0.3 0.81 0.47 -0.47 0.32 0.22 -0.47 0.32 0.22 -8.16 6.24 3.57 16.67 -6.52 -5.18 5.42 -61.46 45.91 92.9 42.36 -4.07 -18.49 32.09 -32.0 2.91 0.18 -8.57 -17.31 1.08 -64.66 -13.15 21.85 -2.78 11.43 30.09 24.23
32.38 94.53 25.05 -149.31 -1.37 0.61 14.87 -13.52 0.46 0.0 28.04 0.0 -17.54 -13.24 3.0 16.49 -12.08 10.63 0.0 20.76 0.0 6.45 -14.36 -3.52 -0.77 1.94 1.12 -0.19 0.49 0.28 -0.31 0.81 0.47 -0.47 0.32 0.22 -0.47 0.32 0.22 -8.15 6.21 3.56 16.7 -6.57 -5.2 5.46 -61.41 45.84 92.77 42.28 -4.06 -18.46 32.04 -32.16 2.94 0.15 -8.56 -17.33 1.08 -64.65 -13.14 21.87 -2.81 11.45 30.07 24.25
32.37 94.54 25.06 -149.26 -1.37 0.62 14.85 -13.51 0.46 -0.0 28.04 0.0 -17.55 -13.24 3.0 16.51 -12.1 10.62 0.0 20.76 0.0 6.45 -14.37 -3.53 -0.8 1.94 1.12 -0.2 0.49 0.28 -0.32 0.81 0.47 -0.47 0.32 0.22 -0.47 0.32 0.22 -8.14 6.18 3.55 16.74 -6.6 -5.22 5.49 -61.38 45.78 92.66 42.21 -4.06 -18.43 31.95 -32.28 2.98 0.11 -8.55 -17.35 1.09 -64.65 -13.14 21.88 -2.84 11.47 30.03 24.27
32.37 94.54 25.07 -149.21 -1.38 0.61 14.81 -13.5 0.46 0.0 28.03 -0.0 -17.58 -13.24 2.99 16.51 -12.13 10.62 -0.0 20.78 -0.0 6.45 -14.38 -3.53 -0.7 1.84 1.04 -0.17 0.46 0.26 -0.28 0.77 0.44 -0.48 0.32 0.23 -0.48 0.33 0.23 -8.32 6.35 3.66 16.54 -6.5 -5.06 5.43 -61.35 45.82 92.61 42.01 -3.93 -18.46 31.98 -32.54 2.82 0.24 -8.39 -17.38 1.12 -64.66 -13.13 21.85 -2.81 11.47 30.04 24.26
32.37 94.54 25.08 -149.15 -1.38 0.6 14.78 -13.49 0.48 -0.0 28.02 -0.0 -17.6 -13.24 2.99 16.51 -12.14 10.62 0.0 20.78 -0.0 6.45 -14.38 -3.54 -0.71 1.83 1.03 -0.17 0.46 0.26 -0.28 0.76 0.43 -0.48 0.32 0.23 -0.48 0.33 0.23 -8.36 6.37 3.67 16.54 -6.51 -5.05 5.37 -61.33 45.84 92.62 41.94 -3.9 -18.45 31.94 -32.62 2.83 0.22 -8.36 -17.44 1.15 -64.69 -13.13 21.82 -2.78 11.49 30.03 24.25
32.38 94.54 25.09 -149.1 -1.38 0.6 14.76 -13.49 0.48 0.0 28.02 0.0 -17.62 -13.24 2.98 16.5 -12.16 10.62 -0.0 20.79 0.0 6.45 -14.38 -3.55 -0.72 1.82 1.02 -0.18 0.45 0.26 -0.29 0.76 0.43 -0.49 0.32 0.23 -0.48 0.32 0.23 -8.37 6.35 3.67 16.5 -6.49 -5.03 5.45 -61.34 45.77 92.59 41.87 -3.91 -18.44 31.9 -32.7 2.85 0.21 -8.33 -17.46 1.16 -64.68 -13.1 21.65 -2.68 11.43 30.21 24.17
32.38 94.54 25.09 -149.06 -1.38 0.6 14.74 -13.48 0.48 0.0 28.03 -0.0 -17.65 -13.25 2.98 16.51 -12.19 10.61 0.0 20.8 -0.0 6.45 -14.39 -3.56 -0.72 1.81 1.01 -0.18 0.45 0.26 -0.29 0.75 0.42 -0.49 0.32 0.23 -0.49 0.32 0.23 -8.39 6.32 3.68 16.46 -6.48 -5.01 5.51 -61.35 45.71 92.58 41.82 -3.92 -18.43 31.86 -32.78 2.87 0.2 -8.31 -17.48 1.17 -64.67 -13.1 21.63 -2.7 11.45 30.21 24.16
